<?xml version="1.0" encoding="utf-8"?>
<!-- Generator: Adobe Illustrator 28.3.0, SVG Export Plug-In . SVG Version: 6.00 Build 0)  -->
<svg version="1.1" id="Livello_2_00000036963481948570066080000010227565619476796069_"
	 xmlns="http://www.w3.org/2000/svg" xmlns:xlink="http://www.w3.org/1999/xlink" x="0px" y="0px" viewBox="0 0 100.6 100.6"
	 style="enable-background:new 0 0 100.6 100.6;" xml:space="preserve">
<g id="Livello_2-2">
	<g>
		<path d="M100.6,35.3v65.3L51,67.9v-65c0-1.7-1.9-2.7-3.3-1.8C48.7,0.4,49.8,0,51,0s2.3,0.3,3.3,1.1l6.6,4.7
			C60.9,5.9,100.6,35.3,100.6,35.3z"/>
		<path d="M51,67.9v32.7H0.1V39c0-1.7,1.9-2.7,3.3-1.8L24.9,51L51,67.9C51,67.9,51,67.9,51,67.9z"/>
		<path d="M51,3v65L24.8,51.2L3.3,37.4C1.9,36.5,0,37.5,0,39.2v-0.8c0-2,0.9-3.8,2.6-5l0,0L47.7,1.2C49.1,0.2,51,1.3,51,3L51,3z"/>
	</g>
</g>
</svg>
