<?xml version="1.0" encoding="utf-8"?>
<!-- Generator: Adobe Illustrator 28.3.0, SVG Export Plug-In . SVG Version: 6.00 Build 0)  -->
<svg version="1.1" id="Livello_2_00000053506534493540104740000006336518766822963873_"
	 xmlns="http://www.w3.org/2000/svg" xmlns:xlink="http://www.w3.org/1999/xlink" x="0px" y="0px" viewBox="0 0 720.9 100.6"
	 style="enable-background:new 0 0 720.9 100.6;" xml:space="preserve">
<style type="text/css">
	.st0{fill:#FFFFFF;}
</style>
<g id="Livello_2-2">
	<g>
		<rect x="499.7" y="37.8" class="st0" width="10.3" height="57"/>
		<polygon class="st0" points="131,61.1 168.8,61.1 168.8,51.9 131,51.9 131,28.8 173.4,28.8 173.4,19.4 120.2,19.4 120.2,94.8 
			174.9,94.8 174.9,85.4 131,85.4 		"/>
		<path class="st0" d="M218.4,64.9c-2.8-0.9-6.6-1.7-11.1-2.5c-3.4-0.7-6.1-1.2-8-1.7s-3.5-1.3-4.8-2.4s-1.9-2.5-1.9-4.4
			c0-2.4,1.1-4.3,3.4-5.7c2.3-1.4,5.6-2.2,10-2.2c6.3,0,11.8,1.5,16.5,4.5l4.4-8.2c-2.4-1.6-5.6-2.8-9.4-3.8
			c-3.8-0.9-7.6-1.4-11.4-1.4c-7.3,0-13,1.6-17.3,4.7s-6.5,7.3-6.5,12.4c0,4,1,7.1,3.1,9.4c2.1,2.2,4.6,3.8,7.5,4.7
			c2.9,0.9,6.6,1.8,11.2,2.5c3.4,0.6,6,1.1,7.8,1.6s3.4,1.2,4.6,2.2s1.8,2.4,1.8,4.1c0,5.2-4.5,7.8-13.6,7.8
			c-3.7,0-7.3-0.5-10.9-1.6s-6.6-2.5-9.1-4.3l-4.3,8.2c2.4,1.9,5.8,3.5,10.1,4.8s8.8,1.9,13.5,1.9c7.6,0,13.6-1.5,18-4.6
			c4.4-3,6.6-7.2,6.6-12.3c0-3.9-1-6.9-3-9C223.7,67.3,221.2,65.8,218.4,64.9L218.4,64.9L218.4,64.9z"/>
		<polygon class="st0" points="234.4,46.2 234.4,25.2 244.7,25.2 244.7,37.7 261.1,37.7 261.1,46.2 		"/>
		<path class="st0" d="M264.9,91.4c-1.5,1.3-3.4,2.3-5.6,3s-4.5,1-6.9,1c-5.7,0-10.2-1.5-13.3-4.6c-3.2-3.1-4.7-7.5-4.7-13.2V46.3
			l10.3,6.6v24.3c0,3.1,0.8,5.5,2.3,7.1c1.5,1.7,3.7,2.5,6.6,2.5c3.2,0,5.8-0.9,8.1-2.7L264.9,91.4L264.9,91.4L264.9,91.4z"/>
		<polygon class="st0" points="327,46.2 327,25.2 337.4,25.2 337.4,37.7 353.7,37.7 353.7,46.2 		"/>
		<path class="st0" d="M357.6,91.4c-1.5,1.3-3.4,2.3-5.6,3s-4.5,1-6.9,1c-5.7,0-10.2-1.5-13.3-4.6c-3.2-3.1-4.7-7.5-4.7-13.2V46.3
			l10.3,6.6v24.3c0,3.1,0.8,5.5,2.3,7.1c1.5,1.7,3.7,2.5,6.6,2.5c3.2,0,5.8-0.9,8.1-2.7L357.6,91.4
			C357.6,91.4,357.6,91.4,357.6,91.4z"/>
		<path class="st0" d="M312,43c-4.2-3.9-10.2-5.8-18.1-5.8c-4.6,0-8.9,0.6-13,1.9s-7.6,3.1-10.5,5.4l4.3,7.8c2.2-1.9,5-3.3,8.2-4.5
			c3.2-1.1,6.5-1.7,9.9-1.7c5,0,8.8,1.2,11.4,3.6s3.9,5.8,3.9,10.2V62h-16.4c-8,0-13.8,1.5-17.4,4.6c-3.6,3-5.5,7.1-5.5,12.1
			s1.9,9.1,5.8,12.2c3.8,3.1,8.9,4.6,15.3,4.6c4.4,0,8.2-0.7,11.4-2.1c3.2-1.4,5.7-3.4,7.4-6.1v7.5h9.8V60.3
			C318.3,52.7,316.2,46.9,312,43L312,43L312,43z M308,77.3c-1.3,3.2-3.4,5.7-6.2,7.5c-2.9,1.8-6.3,2.6-10.2,2.6s-7-0.8-9.3-2.5
			c-2.2-1.6-3.3-3.9-3.3-6.8c0-5.9,4.4-8.8,13.1-8.8H308V77.3C308,77.3,308,77.3,308,77.3z"/>
		<path class="st0" d="M415.4,66.6c0-5.7-1.2-10.8-3.6-15.3c-2.4-4.4-5.7-7.9-10-10.4s-9.1-3.7-14.6-3.7s-10.4,1.2-14.7,3.7
			s-7.8,5.9-10.2,10.4c-2.5,4.5-3.7,9.4-3.7,15s1.3,10.6,3.8,15.1s6.2,7.9,10.8,10.4c4.7,2.5,10,3.7,16,3.7c4.7,0,9-0.8,12.9-2.4
			s7.1-3.9,9.6-6.9l-5.7-6.7c-4.2,4.6-9.6,6.9-16.5,6.9c-5.6,0-10.3-1.5-14-4.6c-3.8-3.1-6-7.1-6.6-12.1h46.3
			C415.3,68.4,415.4,67.4,415.4,66.6L415.4,66.6L415.4,66.6z M368.9,62.3c0.6-4.9,2.5-8.8,5.9-11.8c3.3-3,7.5-4.5,12.4-4.5
			s9.1,1.5,12.4,4.6c3.3,3,5.3,7,5.9,11.8L368.9,62.3L368.9,62.3L368.9,62.3L368.9,62.3z"/>
		<polygon class="st0" points="452.1,81.3 425,19.4 413.3,19.4 446.5,94.8 457.1,94.8 490.2,19.4 479.4,19.4 		"/>
		<path class="st0" d="M558.5,64.9c-2.8-0.9-6.6-1.7-11.1-2.5c-3.4-0.7-6.1-1.2-8-1.7s-3.5-1.3-4.8-2.4s-1.9-2.5-1.9-4.4
			c0-2.4,1.1-4.3,3.4-5.7c2.3-1.4,5.6-2.2,10-2.2c6.3,0,11.8,1.5,16.5,4.5l4.4-8.2c-2.4-1.6-5.6-2.8-9.4-3.8
			c-3.8-0.9-7.6-1.4-11.4-1.4c-7.3,0-13,1.6-17.3,4.7s-6.5,7.3-6.5,12.4c0,4,1,7.1,3.1,9.4c2.1,2.2,4.6,3.8,7.5,4.7
			c2.9,0.9,6.6,1.8,11.2,2.5c3.4,0.6,6,1.1,7.8,1.6s3.4,1.2,4.6,2.2c1.2,1,1.8,2.4,1.8,4.1c0,5.2-4.5,7.8-13.6,7.8
			c-3.7,0-7.3-0.5-10.9-1.6c-3.6-1.1-6.6-2.5-9.1-4.3l-4.3,8.2c2.4,1.9,5.8,3.5,10.1,4.8s8.8,1.9,13.5,1.9c7.6,0,13.6-1.5,18-4.6
			c4.4-3,6.6-7.2,6.6-12.3c0-3.9-1-6.9-3-9C563.7,67.3,561.3,65.8,558.5,64.9L558.5,64.9L558.5,64.9z"/>
		<path class="st0" d="M653,51.2c-2.5-4.4-6.1-7.9-10.5-10.3c-4.5-2.5-9.6-3.7-15.2-3.7s-10.8,1.2-15.3,3.7s-8.1,5.9-10.6,10.3
			s-3.8,9.4-3.8,15s1.3,10.6,3.8,15s6.1,7.9,10.6,10.4s9.6,3.8,15.3,3.8s10.7-1.3,15.2-3.8s8-6,10.5-10.4s3.8-9.4,3.8-15
			C656.9,60.6,655.6,55.7,653,51.2z M643.9,76.7c-1.7,3-3.9,5.4-6.8,7.1c-2.9,1.7-6.2,2.5-9.8,2.5s-6.9-0.8-9.8-2.5
			c-2.9-1.7-5.2-4.1-6.9-7.1s-2.5-6.6-2.5-10.5s0.8-7.4,2.5-10.5s4-5.4,6.9-7.1c2.9-1.6,6.2-2.5,9.8-2.5s6.9,0.8,9.8,2.5
			c2.9,1.6,5.2,4,6.8,7.1c1.6,3,2.5,6.5,2.5,10.5S645.6,73.7,643.9,76.7z"/>
		<path class="st0" d="M714.6,43.5c-4.3-4.2-10-6.3-17.3-6.3c-4.5,0-8.6,0.8-12.1,2.4c-3.6,1.6-6.4,3.8-8.4,6.8v-8.6h-9.9v57h10.3
			V65.4c0-6.1,1.6-10.8,4.8-14c3.2-3.3,7.6-4.9,13.2-4.9c5,0,8.8,1.4,11.4,4.2c2.6,2.8,4,7,4,12.5v31.6h10.3V62
			C721,53.9,718.8,47.7,714.6,43.5C714.6,43.5,714.6,43.5,714.6,43.5z"/>
		<polyline class="st0" points="588.6,35.4 588.6,25.2 575.6,25.2 		"/>
		<polyline class="st0" points="510,35.4 510,25.2 496.9,25.2 		"/>
		<rect x="578.3" y="37.8" class="st0" width="10.3" height="57"/>
		<g>
			<path class="st0" d="M100.6,35.3v65.3L51,67.9v-65c0-1.7-1.9-2.7-3.3-1.8C48.7,0.4,49.8,0,51,0s2.3,0.3,3.3,1.1l6.6,4.7
				C60.9,5.9,100.6,35.3,100.6,35.3z"/>
			<path class="st0" d="M51,67.9v32.7H0.1V39c0-1.7,1.9-2.7,3.3-1.8L24.9,51L51,67.9C51,67.9,51,67.9,51,67.9z"/>
			<path class="st0" d="M51,3v65L24.8,51.2L3.3,37.4C1.9,36.5,0,37.5,0,39.2v-0.8c0-2,0.9-3.8,2.6-5l0,0L47.7,1.2
				C49.1,0.2,51,1.3,51,3L51,3z"/>
		</g>
	</g>
</g>
</svg>
